<svg width="32" height="32" viewBox="0 0 32 32" fill="none" xmlns="http://www.w3.org/2000/svg">
    <path d="M26.6666 14.6667C26.6666 20.5577 21.891 25.3333 15.9999 25.3333C10.1089 25.3333 5.33325 20.5577 5.33325 14.6667C5.33325 8.77563 10.1089 4 15.9999 4C21.891 4 26.6666 8.77563 26.6666 14.6667Z" fill="#FFBB0D"/>
    <path fill-rule="evenodd" clip-rule="evenodd" d="M27.4568 14.6667C27.4568 20.9941 22.3274 26.1234 16 26.1234C9.67259 26.1234 4.54321 20.9941 4.54321 14.6667C4.54321 8.33925 9.67259 3.20987 16 3.20987C22.3274 3.20987 27.4568 8.33925 27.4568 14.6667ZM16 25.3333C21.891 25.3333 26.6667 20.5577 26.6667 14.6667C26.6667 8.77562 21.891 3.99999 16 3.99999C10.109 3.99999 5.33334 8.77562 5.33334 14.6667C5.33334 20.5577 10.109 25.3333 16 25.3333Z" fill="#E89B05"/>
    <path fill-rule="evenodd" clip-rule="evenodd" d="M6.12341 15.0617C5.90523 15.0617 5.72835 14.8848 5.72835 14.6667C5.72835 8.99381 10.3271 4.39506 16 4.39506C16.2181 4.39506 16.395 4.57193 16.395 4.79012C16.395 5.0083 16.2181 5.18518 16 5.18518C10.7635 5.18518 6.51848 9.43018 6.51848 14.6667C6.51848 14.8848 6.3416 15.0617 6.12341 15.0617Z" fill="#E8AA0A"/>
    <path fill-rule="evenodd" clip-rule="evenodd" d="M25.8766 14.2716C26.0948 14.2716 26.2716 14.4485 26.2716 14.6667C26.2716 20.3395 21.6729 24.9383 16 24.9383C15.7819 24.9383 15.605 24.7614 15.605 24.5432C15.605 24.325 15.7819 24.1481 16 24.1481C21.2365 24.1481 25.4815 19.9031 25.4815 14.6667C25.4815 14.4485 25.6584 14.2716 25.8766 14.2716Z" fill="#E8AA0A"/>
    <path d="M23.9013 14.6667C23.9013 19.0304 20.3638 22.5679 16.0001 22.5679C11.6364 22.5679 8.09888 19.0304 8.09888 14.6667C8.09888 10.3029 11.6364 6.76543 16.0001 6.76543C20.3638 6.76543 23.9013 10.3029 23.9013 14.6667Z" fill="#FFDD28"/>
    <path fill-rule="evenodd" clip-rule="evenodd" d="M24.6913 14.6667C24.6913 19.4668 20.8001 23.358 16 23.358C11.1998 23.358 7.30859 19.4668 7.30859 14.6667C7.30859 9.86655 11.1998 5.9753 16 5.9753C20.8001 5.9753 24.6913 9.86655 24.6913 14.6667ZM16 22.5679C20.3637 22.5679 23.9012 19.0304 23.9012 14.6667C23.9012 10.3029 20.3637 6.76542 16 6.76542C11.6362 6.76542 8.09872 10.3029 8.09872 14.6667C8.09872 19.0304 11.6362 22.5679 16 22.5679Z" fill="#E89B05"/>
    <path fill-rule="evenodd" clip-rule="evenodd" d="M15.9999 21.3827C19.7091 21.3827 22.716 18.3758 22.716 14.6667C22.716 14.4485 22.8929 14.2716 23.111 14.2716C23.3292 14.2716 23.5061 14.4485 23.5061 14.6667C23.5061 18.8122 20.1455 22.1728 15.9999 22.1728C15.7817 22.1728 15.6049 21.996 15.6049 21.7778C15.6049 21.5596 15.7817 21.3827 15.9999 21.3827Z" fill="#ECC704"/>
    <path fill-rule="evenodd" clip-rule="evenodd" d="M16.0001 7.95062C12.2909 7.95062 9.28402 10.9575 9.28402 14.6667C9.28402 14.8849 9.10714 15.0617 8.88896 15.0617C8.67077 15.0617 8.4939 14.8849 8.4939 14.6667C8.4939 10.5211 11.8545 7.16049 16.0001 7.16049C16.2183 7.16049 16.3951 7.33737 16.3951 7.55555C16.3951 7.77374 16.2183 7.95062 16.0001 7.95062Z" fill="#FFEF9C"/>
    <path d="M3.92564 25.1843L2.90805 23.1491C2.79723 22.9274 2.95839 22.6667 3.20619 22.6667L7.66684 22.6667C7.85094 22.6667 8.00018 22.8159 8.00018 23L8.00018 27.6667C8.00018 27.8507 7.85094 28 7.66684 28L3.20619 28C2.95839 28 2.79723 27.7392 2.90805 27.5176L3.92564 25.4824C3.97256 25.3885 3.97256 25.2781 3.92564 25.1843Z" fill="#0355B6"/>
    <path d="M28.0747 25.1843L29.0923 23.1491C29.2031 22.9274 29.042 22.6667 28.7942 22.6667L24.3335 22.6667C24.1494 22.6667 24.0002 22.8159 24.0002 23L24.0002 27.6667C24.0002 27.8508 24.1494 28 24.3335 28L28.7942 28C29.042 28 29.2031 27.7392 29.0923 27.5176L28.0747 25.4824C28.0278 25.3886 28.0278 25.2781 28.0747 25.1843Z" fill="#0355B6"/>
    <path fill-rule="evenodd" clip-rule="evenodd" d="M3.25477 25.3333L2.31171 23.4472C1.97927 22.7823 2.46275 22 3.20614 22L7.6668 22C8.21908 22 8.6668 22.4477 8.6668 23L8.6668 27.6667C8.6668 28.2189 8.21908 28.6667 7.6668 28.6667L3.20614 28.6667C2.46275 28.6667 1.97926 27.8843 2.31171 27.2195L3.25477 25.3333ZM3.32912 25.482C3.32918 25.4822 3.32925 25.4823 3.32931 25.4824L3.62746 25.3333L3.32931 25.4824L3.32912 25.482ZM28.7455 25.3333L29.6885 23.4472C30.021 22.7823 29.5375 22 28.7941 22L24.3335 22C23.7812 22 23.3335 22.4477 23.3335 23L23.3335 27.6667C23.3335 28.2189 23.7812 28.6667 24.3335 28.6667L28.7941 28.6667C29.5375 28.6667 30.021 27.8844 29.6885 27.2195L28.7455 25.3333ZM29.0923 23.1491L28.0747 25.1843C28.0277 25.2781 28.0277 25.3886 28.0747 25.4824L29.0923 27.5176C29.2031 27.7392 29.0419 28 28.7941 28L24.3335 28C24.1494 28 24.0001 27.8508 24.0001 27.6667L24.0001 23C24.0001 22.8159 24.1494 22.6667 24.3335 22.6667L28.7941 22.6667C29.0419 22.6667 29.2031 22.9274 29.0923 23.1491ZM2.908 23.1491L3.92559 25.1843C3.97251 25.2781 3.97251 25.3886 3.92559 25.4824L2.908 27.5176C2.79718 27.7392 2.95835 28 3.20614 28L7.6668 28C7.85089 28 8.00013 27.8508 8.00013 27.6667L8.00013 23C8.00013 22.8159 7.85089 22.6667 7.6668 22.6667L3.20614 22.6667C2.95835 22.6667 2.79718 22.9274 2.908 23.1491Z" fill="#023E84"/>
    <path fill-rule="evenodd" clip-rule="evenodd" d="M3.38483 22.9681C3.44587 22.8713 3.55234 22.8125 3.66683 22.8125H5.0835C5.26759 22.8125 5.41683 22.9617 5.41683 23.1458C5.41683 23.3299 5.26759 23.4792 5.0835 23.4792H4.19574L4.88421 24.9187C4.96364 25.0848 4.89339 25.2838 4.72732 25.3632C4.56124 25.4426 4.36221 25.3724 4.28279 25.2063L3.36612 23.2897C3.31672 23.1864 3.32379 23.065 3.38483 22.9681Z" fill="#1871DA"/>
    <path d="M25.3335 26.3333L25.3335 21.6667C25.3335 21.4826 25.1843 21.3333 25.0002 21.3333L7.00016 21.3333C6.81607 21.3333 6.66683 21.4826 6.66683 21.6667L6.66683 26.3333C6.66683 26.5174 6.81607 26.6667 7.00016 26.6667L25.0002 26.6667C25.1843 26.6667 25.3335 26.5174 25.3335 26.3333Z" fill="#086FE9"/>
    <path fill-rule="evenodd" clip-rule="evenodd" d="M26 21.6667L26 26.3333C26 26.8856 25.5523 27.3333 25 27.3333L7 27.3333C6.44772 27.3333 6 26.8856 6 26.3333L6 21.6667C6 21.1144 6.44771 20.6667 7 20.6667L25 20.6667C25.5523 20.6667 26 21.1144 26 21.6667ZM25.3333 21.6667L25.3333 26.3333C25.3333 26.5174 25.1841 26.6667 25 26.6667L7 26.6667C6.8159 26.6667 6.66667 26.5174 6.66667 26.3333L6.66667 21.6667C6.66667 21.4826 6.8159 21.3333 7 21.3333L25 21.3333C25.1841 21.3333 25.3333 21.4826 25.3333 21.6667Z" fill="#023E84"/>
    <path fill-rule="evenodd" clip-rule="evenodd" d="M6.875 21.8125C6.875 21.6284 7.02424 21.4792 7.20833 21.4792H19.7083C19.8924 21.4792 20.0417 21.6284 20.0417 21.8125C20.0417 21.9966 19.8924 22.1458 19.7083 22.1458H7.54167V24.4792C7.54167 24.6633 7.39243 24.8125 7.20833 24.8125C7.02424 24.8125 6.875 24.6633 6.875 24.4792V21.8125Z" fill="#3D96FF"/>
    <path d="M24.4126 24.1266C24.2239 24.1266 24.0709 23.9773 24.0709 23.7931C24.0709 23.609 24.2239 23.4597 24.4126 23.4597C24.6014 23.4597 24.7544 23.609 24.7544 23.7931C24.7544 23.9773 24.6014 24.1266 24.4126 24.1266Z" fill="#055EC8"/>
    <path d="M23.1122 23.9932C22.8774 23.9932 22.6871 23.8075 22.6871 23.5784C22.6871 23.3493 22.8774 23.1637 23.1122 23.1637C23.347 23.1637 23.5374 23.3493 23.5374 23.5784C23.5374 23.8075 23.347 23.9932 23.1122 23.9932Z" fill="#055EC8"/>
    <path d="M23.6915 24.9415C23.5741 24.9415 23.4789 24.8486 23.4789 24.7341C23.4789 24.6195 23.5741 24.5267 23.6915 24.5267C23.8089 24.5267 23.9041 24.6195 23.9041 24.7341C23.9041 24.8486 23.8089 24.9415 23.6915 24.9415Z" fill="#055EC8"/>
    <path d="M23.3248 22.7481C23.2074 22.7481 23.1122 22.6552 23.1122 22.5407C23.1122 22.4262 23.2074 22.3333 23.3248 22.3333C23.4422 22.3333 23.5374 22.4262 23.5374 22.5407C23.5374 22.6552 23.4422 22.7481 23.3248 22.7481Z" fill="#055EC8"/>
    <path d="M22.2078 24.7341C22.0905 24.7341 21.9953 24.6412 21.9953 24.5267C21.9953 24.4122 22.0905 24.3193 22.2078 24.3193C22.3252 24.3193 22.4204 24.4122 22.4204 24.5267C22.4204 24.6412 22.3252 24.7341 22.2078 24.7341Z" fill="#055EC8"/>
    <path d="M21.9952 23.6671C21.8778 23.6671 21.7826 23.5742 21.7826 23.4597C21.7826 23.3452 21.8778 23.2523 21.9952 23.2523C22.1126 23.2523 22.2078 23.3452 22.2078 23.4597C22.2078 23.5742 22.1126 23.6671 21.9952 23.6671Z" fill="#055EC8"/>
    <path d="M20.546 26.0727C20.4286 26.0727 20.3334 25.9798 20.3334 25.8653C20.3334 25.7508 20.4286 25.6579 20.546 25.6579C20.6634 25.6579 20.7585 25.7508 20.7585 25.8653C20.7585 25.9798 20.6634 26.0727 20.546 26.0727Z" fill="#055EC8"/>
    <path d="M24.7752 25.281C24.6578 25.281 24.5627 25.1882 24.5627 25.0736C24.5627 24.9591 24.6578 24.8663 24.7752 24.8663C24.8926 24.8663 24.9878 24.9591 24.9878 25.0736C24.9878 25.1882 24.8926 25.281 24.7752 25.281Z" fill="#055EC8"/>
    <path d="M22.7664 25.7352C22.5753 25.7352 22.4204 25.5841 22.4204 25.3977C22.4204 25.2113 22.5753 25.0602 22.7664 25.0602C22.9574 25.0602 23.1123 25.2113 23.1123 25.3977C23.1123 25.5841 22.9574 25.7352 22.7664 25.7352Z" fill="#055EC8"/>
    <path d="M24.25 26.0727C24.059 26.0727 23.9041 25.9216 23.9041 25.7352C23.9041 25.5488 24.059 25.3977 24.25 25.3977C24.4411 25.3977 24.5959 25.5488 24.5959 25.7352C24.5959 25.9216 24.4411 26.0727 24.25 26.0727Z" fill="#055EC8"/>
    <path d="M21.2241 25.4091C21.0331 25.4091 20.8782 25.258 20.8782 25.0716C20.8782 24.8852 21.0331 24.7341 21.2241 24.7341C21.4152 24.7341 21.5701 24.8852 21.5701 25.0716C21.5701 25.258 21.4152 25.4091 21.2241 25.4091Z" fill="#055EC8"/>
    <path d="M21.7826 26.1752C21.6652 26.1752 21.57 26.0823 21.57 25.9678C21.57 25.8533 21.6652 25.7604 21.7826 25.7604C21.8999 25.7604 21.9951 25.8533 21.9951 25.9678C21.9951 26.0823 21.8999 26.1752 21.7826 26.1752Z" fill="#055EC8"/>
</svg>
