<svg width="20" height="20" viewBox="0 0 20 20" fill="none" xmlns="http://www.w3.org/2000/svg">
<path fill-rule="evenodd" clip-rule="evenodd" d="M7.94999 2C7.71836 0.85888 6.70948 0 5.5 0C4.28513 0 3.27266 0.866551 3.04696 2.01527C2.96293 2.01925 2.88225 2.02426 2.80497 2.03057C2.40963 2.06287 2.01641 2.13419 1.63803 2.32698C1.07354 2.6146 0.614602 3.07354 0.326982 3.63803C0.134188 4.01641 0.0628723 4.40963 0.0305712 4.80497C-3.25181e-05 5.17954 -1.70213e-05 5.63431 8.6011e-07 6.16146V15.8385C-1.70213e-05 16.3657 -3.25181e-05 16.8205 0.0305712 17.195C0.0628723 17.5904 0.134188 17.9836 0.326982 18.362C0.614603 18.9265 1.07355 19.3854 1.63803 19.673C2.01641 19.8658 2.40963 19.9371 2.80497 19.9694C3.17954 20 3.6343 20 4.16144 20H15.8386C16.3657 20 16.8205 20 17.195 19.9694C17.5904 19.9371 17.9836 19.8658 18.362 19.673C18.9265 19.3854 19.3854 18.9265 19.673 18.362C19.8658 17.9836 19.9371 17.5904 19.9694 17.195C20 16.8205 20 16.3657 20 15.8386V6.16143C20 5.63429 20 5.17954 19.9694 4.80497C19.9371 4.40963 19.8658 4.01641 19.673 3.63803C19.3854 3.07354 18.9265 2.6146 18.362 2.32698C17.9836 2.13419 17.5904 2.06287 17.195 2.03057C17.1178 2.02426 17.0371 2.01925 16.953 2.01527C16.7273 0.866551 15.7149 0 14.5 0C13.2905 0 12.2816 0.85888 12.05 2H7.94999ZM2.96784 4.02393C2.69617 4.04612 2.59546 4.0838 2.54601 4.10899C2.35785 4.20487 2.20487 4.35785 2.109 4.54601C2.0838 4.59545 2.04612 4.69617 2.02393 4.96784C2.00078 5.25117 2 5.62345 2 6.2V7H18V6.2C18 5.62345 17.9992 5.25117 17.9761 4.96784C17.9539 4.69617 17.9162 4.59545 17.891 4.54601C17.7951 4.35785 17.6422 4.20487 17.454 4.10899C17.4045 4.0838 17.3038 4.04612 17.0322 4.02393C16.7488 4.00078 16.3766 4 15.8 4H4.2C3.62345 4 3.25117 4.00078 2.96784 4.02393ZM18 9V15.8C18 16.3766 17.9992 16.7488 17.9761 17.0322C17.9539 17.3038 17.9162 17.4045 17.891 17.454C17.7951 17.6422 17.6422 17.7951 17.454 17.891C17.4045 17.9162 17.3038 17.9539 17.0322 17.9761C16.7488 17.9992 16.3766 18 15.8 18H4.2C3.62345 18 3.25117 17.9992 2.96784 17.9761C2.69617 17.9539 2.59546 17.9162 2.54601 17.891C2.35785 17.7951 2.20487 17.6422 2.109 17.454C2.0838 17.4045 2.04612 17.3038 2.02393 17.0322C2.00078 16.7488 2 16.3766 2 15.8V9H18Z" fill="#838BF4"/>
</svg>
