<svg width="18" height="18" viewBox="0 0 18 18" fill="none" xmlns="http://www.w3.org/2000/svg">
<path d="M15.8074 7.73455C17.2088 8.92208 17.3791 10.9413 16.2972 12.3607C15.3976 13.5409 12.6751 16.0299 11.7828 16.8355C11.683 16.9256 11.6331 16.9707 11.5749 16.9884C11.524 17.0039 11.4684 17.0039 11.4176 16.9884C11.3594 16.9707 11.3095 16.9256 11.2097 16.8355C10.7709 16.4394 9.88952 15.6361 9 14.7816M6.49623 3.1976C5.39659 1.88696 3.56286 1.5344 2.18508 2.73455C0.807304 3.9347 0.613332 5.94129 1.69531 7.36071C2.5949 8.54087 5.31737 11.0299 6.20966 11.8355C6.30948 11.9256 6.3594 11.9707 6.41762 11.9884C6.46843 12.0039 6.52403 12.0039 6.57485 11.9884C6.63307 11.9707 6.68298 11.9256 6.78281 11.8355C7.67509 11.0299 10.3976 8.54087 11.2972 7.36071C12.3791 5.94129 12.2088 3.92208 10.8074 2.73455C9.40592 1.54703 7.59588 1.88696 6.49623 3.1976Z" stroke="#7B7B9C" stroke-width="2" stroke-linecap="round" stroke-linejoin="round"/>
</svg>
