<svg width="22" height="22" viewBox="0 0 22 22" fill="none" xmlns="http://www.w3.org/2000/svg">
<path fill-rule="evenodd" clip-rule="evenodd" d="M8 2.51466C8 1.12585 9.12585 0 10.5147 0H11.4853C12.8741 0 14 1.12587 14 2.5147C14 2.9732 14.5544 3.2029 14.8787 2.87862C15.8607 1.89657 17.453 1.89654 18.435 2.87861L19.1213 3.56488C20.1034 4.54696 20.1034 6.13921 19.1213 7.12128C18.797 7.44556 19.0267 8 19.4853 8C20.8741 8 22 9.12589 22 10.5147V11.4853C22 12.8741 20.8741 14 19.4853 14C19.0268 14 18.7972 14.5544 19.1214 14.8786C20.1035 15.8606 20.1035 17.4528 19.1214 18.4349L18.4351 19.1212C17.4531 20.1033 15.8608 20.1033 14.8787 19.1212C14.5545 18.797 14 19.0266 14 19.4852C14 20.8741 12.8741 22 11.4852 22H10.5147C9.12587 22 8 20.8741 8 19.4852C8 19.0266 7.44554 18.797 7.12133 19.1213C6.13927 20.1033 4.54704 20.1033 3.56498 19.1213L2.87867 18.4349C1.89662 17.4529 1.89662 15.8607 2.87867 14.8786C3.20288 14.5544 2.97327 14 2.51471 14C1.12588 14 0 12.8741 0 11.4853V10.5148C0 9.1259 1.12591 8 2.51478 8C2.9734 8 3.20306 7.44551 2.87878 7.12124C1.89671 6.13916 1.89671 4.5469 2.87879 3.56482L3.56506 2.87854C4.54712 1.89648 6.13935 1.89652 7.12138 2.87855C7.44565 3.20282 8 2.97312 8 2.51466ZM10.5147 2C10.2304 2 10 2.23042 10 2.51466C10 4.75505 7.29128 5.87687 5.70717 4.29277C5.50616 4.09176 5.18027 4.09177 4.97928 4.29276L4.293 4.97903C4.09197 5.18006 4.09197 5.506 4.293 5.70702C5.87722 7.29125 4.75518 10 2.51478 10C2.23047 10 2 10.2305 2 10.5148V11.4853C2 11.7696 2.23044 12 2.51471 12C4.75503 12 5.87706 14.7087 4.29288 16.2928C4.09188 16.4938 4.09188 16.8197 4.29288 17.0207L4.97919 17.707C5.1802 17.908 5.5061 17.908 5.70711 17.707C7.29133 16.1228 10 17.2449 10 19.4852C10 19.7695 10.2305 20 10.5147 20H11.4852C11.7695 20 12 19.7695 12 19.4852C12 17.2449 14.7087 16.1227 16.2929 17.707C16.494 17.908 16.8199 17.908 17.0209 17.707L17.7072 17.0207C17.9082 16.8197 17.9082 16.4938 17.7072 16.2928C16.1231 14.7087 17.245 12 19.4853 12C19.7696 12 20 11.7696 20 11.4853V10.5147C20 10.2305 19.7695 10 19.4853 10C17.2448 10 16.1229 7.29124 17.7071 5.70706C17.9081 5.50604 17.9081 5.18011 17.7071 4.97909L17.0208 4.29283C16.8198 4.09182 16.4939 4.09182 16.2929 4.29284C14.7087 5.87697 12 4.75511 12 2.5147C12 2.23044 11.7696 2 11.4853 2H10.5147ZM11 8C9.34315 8 8 9.34315 8 11C8 12.6569 9.34315 14 11 14C12.6569 14 14 12.6569 14 11C14 9.34315 12.6569 8 11 8ZM6 11C6 8.23858 8.23858 6 11 6C13.7614 6 16 8.23858 16 11C16 13.7614 13.7614 16 11 16C8.23858 16 6 13.7614 6 11Z" fill="#ABABC1"/>
</svg>
